<svg xmlns="http://www.w3.org/2000/svg" xmlns:xlink="http://www.w3.org/1999/xlink" width="500" zoomAndPan="magnify" viewBox="0 0 375 374.999991" height="500" preserveAspectRatio="xMidYMid meet" version="1.0"><defs><clipPath id="64212b9ddc"><path d="M 50.15625 0 L 324.65625 0 L 324.65625 375 L 50.15625 375 Z M 50.15625 0 " clip-rule="nonzero"/></clipPath></defs><g clip-path="url(#64212b9ddc)"><path fill="#ff66c4" d="M 78.90625 7.398438 C 67.167969 7.398438 57.617188 16.949219 57.617188 28.6875 L 57.617188 346.3125 C 57.617188 358.050781 67.167969 367.601562 78.90625 367.601562 L 296.054688 367.601562 C 307.792969 367.601562 317.34375 358.050781 317.34375 346.3125 L 317.34375 28.6875 C 317.34375 16.949219 307.792969 7.398438 296.054688 7.398438 Z M 296.054688 375.003906 L 78.90625 375.003906 C 63.085938 375.003906 50.21875 362.132812 50.21875 346.3125 L 50.21875 28.6875 C 50.21875 12.867188 63.085938 -0.00390625 78.90625 -0.00390625 L 296.054688 -0.00390625 C 311.875 -0.00390625 324.746094 12.867188 324.746094 28.6875 L 324.746094 346.3125 C 324.746094 362.132812 311.875 375.003906 296.054688 375.003906 " fill-opacity="1" fill-rule="nonzero"/></g><path fill="#ff66c4" d="M 87.101562 119.097656 L 287.863281 119.097656 L 287.863281 36.644531 L 87.101562 36.644531 Z M 291.5625 126.5 L 83.398438 126.5 C 81.355469 126.5 79.699219 124.839844 79.699219 122.796875 L 79.699219 32.945312 C 79.699219 30.898438 81.355469 29.242188 83.398438 29.242188 L 291.5625 29.242188 C 293.605469 29.242188 295.261719 30.898438 295.261719 32.945312 L 295.261719 122.796875 C 295.261719 124.839844 293.605469 126.5 291.5625 126.5 " fill-opacity="1" fill-rule="nonzero"/><path fill="#ff66c4" d="M 87.101562 204.535156 L 136.453125 204.535156 L 136.453125 162.441406 L 87.101562 162.441406 Z M 140.15625 211.933594 L 83.398438 211.933594 C 81.355469 211.933594 79.699219 210.277344 79.699219 208.234375 L 79.699219 158.742188 C 79.699219 156.699219 81.355469 155.039062 83.398438 155.039062 L 140.15625 155.039062 C 142.199219 155.039062 143.855469 156.699219 143.855469 158.742188 L 143.855469 208.234375 C 143.855469 210.277344 142.199219 211.933594 140.15625 211.933594 " fill-opacity="1" fill-rule="nonzero"/><path fill="#ff66c4" d="M 162.386719 204.535156 L 211.742188 204.535156 L 211.742188 162.441406 L 162.386719 162.441406 Z M 215.441406 211.933594 L 158.6875 211.933594 C 156.644531 211.933594 154.988281 210.277344 154.988281 208.234375 L 154.988281 158.742188 C 154.988281 156.699219 156.644531 155.039062 158.6875 155.039062 L 215.441406 155.039062 C 217.488281 155.039062 219.140625 156.699219 219.140625 158.742188 L 219.140625 208.234375 C 219.140625 210.277344 217.488281 211.933594 215.441406 211.933594 " fill-opacity="1" fill-rule="nonzero"/><path fill="#ff66c4" d="M 237.675781 204.535156 L 287.03125 204.535156 L 287.03125 162.441406 L 237.675781 162.441406 Z M 290.730469 211.933594 L 233.976562 211.933594 C 231.929688 211.933594 230.277344 210.277344 230.277344 208.234375 L 230.277344 158.742188 C 230.277344 156.699219 231.929688 155.039062 233.976562 155.039062 L 290.730469 155.039062 C 292.773438 155.039062 294.429688 156.699219 294.429688 158.742188 L 294.429688 208.234375 C 294.429688 210.277344 292.773438 211.933594 290.730469 211.933594 " fill-opacity="1" fill-rule="nonzero"/><path fill="#ff66c4" d="M 87.101562 272.832031 L 136.453125 272.832031 L 136.453125 230.734375 L 87.101562 230.734375 Z M 140.15625 280.234375 L 83.398438 280.234375 C 81.355469 280.234375 79.699219 278.574219 79.699219 276.53125 L 79.699219 227.035156 C 79.699219 224.992188 81.355469 223.335938 83.398438 223.335938 L 140.15625 223.335938 C 142.199219 223.335938 143.855469 224.992188 143.855469 227.035156 L 143.855469 276.53125 C 143.855469 278.574219 142.199219 280.234375 140.15625 280.234375 " fill-opacity="1" fill-rule="nonzero"/><path fill="#ff66c4" d="M 162.386719 272.832031 L 211.742188 272.832031 L 211.742188 230.734375 L 162.386719 230.734375 Z M 215.441406 280.234375 L 158.6875 280.234375 C 156.644531 280.234375 154.988281 278.574219 154.988281 276.53125 L 154.988281 227.035156 C 154.988281 224.992188 156.644531 223.335938 158.6875 223.335938 L 215.441406 223.335938 C 217.488281 223.335938 219.140625 224.992188 219.140625 227.035156 L 219.140625 276.53125 C 219.140625 278.574219 217.488281 280.234375 215.441406 280.234375 " fill-opacity="1" fill-rule="nonzero"/><path fill="#ff66c4" d="M 87.101562 341.125 L 136.453125 341.125 L 136.453125 299.03125 L 87.101562 299.03125 Z M 140.15625 348.527344 L 83.398438 348.527344 C 81.355469 348.527344 79.699219 346.871094 79.699219 344.828125 L 79.699219 295.328125 C 79.699219 293.285156 81.355469 291.628906 83.398438 291.628906 L 140.15625 291.628906 C 142.199219 291.628906 143.855469 293.285156 143.855469 295.328125 L 143.855469 344.828125 C 143.855469 346.871094 142.199219 348.527344 140.15625 348.527344 " fill-opacity="1" fill-rule="nonzero"/><path fill="#ff66c4" d="M 162.386719 341.125 L 211.742188 341.125 L 211.742188 299.03125 L 162.386719 299.03125 Z M 215.441406 348.527344 L 158.6875 348.527344 C 156.644531 348.527344 154.988281 346.871094 154.988281 344.828125 L 154.988281 295.328125 C 154.988281 293.285156 156.644531 291.628906 158.6875 291.628906 L 215.441406 291.628906 C 217.488281 291.628906 219.140625 293.285156 219.140625 295.328125 L 219.140625 344.828125 C 219.140625 346.871094 217.488281 348.527344 215.441406 348.527344 " fill-opacity="1" fill-rule="nonzero"/><path fill="#ff66c4" d="M 237.675781 341.125 L 287.03125 341.125 L 287.03125 230.734375 L 237.675781 230.734375 Z M 290.730469 348.527344 L 233.976562 348.527344 C 231.929688 348.527344 230.277344 346.871094 230.277344 344.828125 L 230.277344 227.035156 C 230.277344 224.992188 231.929688 223.335938 233.976562 223.335938 L 290.730469 223.335938 C 292.773438 223.335938 294.429688 224.992188 294.429688 227.035156 L 294.429688 344.828125 C 294.429688 346.871094 292.773438 348.527344 290.730469 348.527344 " fill-opacity="1" fill-rule="nonzero"/><path fill="#ff66c4" d="M 262.351562 303.464844 C 260.308594 303.464844 258.652344 301.804688 258.652344 299.761719 L 258.652344 272.097656 C 258.652344 270.058594 260.308594 268.398438 262.351562 268.398438 C 264.398438 268.398438 266.050781 270.058594 266.050781 272.097656 L 266.050781 299.761719 C 266.050781 301.804688 264.398438 303.464844 262.351562 303.464844 " fill-opacity="1" fill-rule="nonzero"/><path fill="#ff66c4" d="M 276.183594 289.632812 L 248.523438 289.632812 C 246.476562 289.632812 244.824219 287.972656 244.824219 285.929688 C 244.824219 283.886719 246.476562 282.230469 248.523438 282.230469 L 276.183594 282.230469 C 278.230469 282.230469 279.886719 283.886719 279.886719 285.929688 C 279.886719 287.972656 278.230469 289.632812 276.183594 289.632812 " fill-opacity="1" fill-rule="nonzero"/></svg>